<svg xmlns="http://www.w3.org/2000/svg" width="256" height="256" viewBox="0 0 100 100"><rect width="100" height="100" rx="20" fill="#5b8fb9"></rect><path d="M14.06 27.23L26.22 27.23Q31.19 27.23 34.72 28.90Q38.25 30.56 40.17 33.71Q42.09 36.86 42.09 41.34L42.09 41.34Q42.09 44.05 41.27 46.66Q40.46 49.28 38.66 51.39Q36.86 53.50 33.97 54.76Q31.07 56.02 26.91 56.02L26.91 56.02L20.17 56.02L20.17 72.77L14.06 72.77L14.06 27.23ZM20.17 50.16L26.85 50.16Q29.56 50.16 31.32 49.28Q33.08 48.39 34.09 47.04Q35.10 45.68 35.54 44.17Q35.98 42.66 35.98 41.46L35.98 41.46Q35.98 40.08 35.54 38.60Q35.10 37.12 34.06 35.89Q33.02 34.66 31.35 33.87Q29.68 33.08 27.23 33.08L27.23 33.08L20.17 33.08L20.17 50.16ZM57.72 27.23L57.72 45.56L57.53 47.83L58.35 46.69L77.00 27.23L84.87 27.23L66.03 46.76L85.94 72.77L78.19 72.77L61.56 50.66L57.72 54.38L57.72 72.77L51.54 72.77L51.54 27.23L57.72 27.23Z" fill="#fff"></path></svg>
